HIERARCHY
ROOT root
{
	OFFSET 0.000000 0.000000 0.000000
	CHANNELS 6 Xposition Yposition Zposition Zrotation Yrotation Xrotation
	JOINT lhip
	{
		OFFSET 0.058581 -0.082280 -0.017664
		CHANNELS 3 Zrotation Yrotation Xrotation
		JOINT lknee
		{
			OFFSET 0.043451 -0.386469 0.008037
			CHANNELS 3 Zrotation Yrotation Xrotation
			JOINT lankle
			{
				OFFSET -0.014790 -0.426874 -0.037428
				CHANNELS 3 Zrotation Yrotation Xrotation
				JOINT ltoe
				{
					OFFSET 0.041054 -0.060286 0.122042
					CHANNELS 3 Zrotation Yrotation Xrotation
					End Site
					{
						OFFSET 0.000000 0.000000 0.000000
					}
				}
			}
		}
	}
	JOINT rhip
	{
		OFFSET -0.060310 -0.090513 -0.013543
		CHANNELS 3 Zrotation Yrotation Xrotation
		JOINT rknee
		{
			OFFSET -0.043257 -0.383688 -0.004843
			CHANNELS 3 Zrotation Yrotation Xrotation
			JOINT rankle
			{
				OFFSET 0.019056 -0.420046 -0.034562
				CHANNELS 3 Zrotation Yrotation Xrotation
				JOINT rtoe
				{
					OFFSET -0.034840 -0.062106 0.130323
					CHANNELS 3 Zrotation Yrotation Xrotation
					End Site
					{
						OFFSET 0.000000 0.000000 0.000000
					}
				}
			}
		}
	}
	JOINT lowerback
	{
		OFFSET 0.004439 0.124404 -0.038385
		CHANNELS 3 Zrotation Yrotation Xrotation
		JOINT upperback
		{
			OFFSET 0.004488 0.137956 0.026820
			CHANNELS 3 Zrotation Yrotation Xrotation
			JOINT chest
			{
				OFFSET -0.002265 0.056032 0.002855
				CHANNELS 3 Zrotation Yrotation Xrotation
				JOINT lowerneck
				{
					OFFSET -0.013390 0.211636 -0.033468
					CHANNELS 3 Zrotation Yrotation Xrotation
					JOINT upperneck
					{
						OFFSET 0.010113 0.088937 0.050410
						CHANNELS 3 Zrotation Yrotation Xrotation
						End Site
						{
							OFFSET 0.000000 0.000000 0.000000
						}
					}
				}
				JOINT lclavicle
				{
					OFFSET 0.071702 0.114000 -0.018898
					CHANNELS 3 Zrotation Yrotation Xrotation
					JOINT lshoulder
					{
						OFFSET 0.122921 0.045205 -0.019046
						CHANNELS 3 Zrotation Yrotation Xrotation
						JOINT lelbow
						{
							OFFSET 0.255332 -0.015649 -0.022946
							CHANNELS 3 Zrotation Yrotation Xrotation
							JOINT lwrist
							{
								OFFSET 0.265709 0.012698 -0.007375
								CHANNELS 3 Zrotation Yrotation Xrotation
								End Site
								{
									OFFSET 0.000000 0.000000 0.000000
								}
							}
						}
					}
				}
				JOINT rclavicle
				{
					OFFSET -0.082954 0.112472 -0.023707
					CHANNELS 3 Zrotation Yrotation Xrotation
					JOINT rshoulder
					{
						OFFSET -0.113228 0.046853 -0.008472
						CHANNELS 3 Zrotation Yrotation Xrotation
						JOINT relbow
						{
							OFFSET -0.260127 -0.014369 -0.031269
							CHANNELS 3 Zrotation Yrotation Xrotation
							JOINT rwrist
							{
								OFFSET -0.269108 0.006794 -0.006027
								CHANNELS 3 Zrotation Yrotation Xrotation
								End Site
								{
									OFFSET 0.000000 0.000000 0.000000
								}
							}
						}
					}
				}
			}
		}
	}
}
MOTION
Frames: 5
Frame Time: 0.033333
0.232661 -1.200877 0.991502 -111.841439 -5.657387 91.828907 -1.025648 -2.352793 0.577330 -8.427496 -18.243233 -3.239731 3.054527 2.287287 -5.333172 0.000000 -0.000000 0.000000 -19.220559 -9.395822 -22.400568 3.657964 -9.702647 37.803161 7.995727 -9.837022 -18.385393 0.000000 -0.000000 0.000000 0.398055 1.097417 12.254688 -6.500227 1.546134 3.031589 -2.952415 1.878645 -9.640431 1.585989 19.608599 10.260560 -4.126963 27.699114 -2.614973 -28.852352 -6.151347 4.566594 -40.351282 -0.039107 1.071207 13.285818 -14.578391 -9.080437 6.753338 -2.794876 -0.013549 23.047721 14.059547 10.006254 38.181693 19.935268 2.627070 -6.408874 21.244620 -8.615206 -3.552301 -0.898425 5.909189 
0.236422 -1.194464 0.991538 -108.738451 -5.999453 91.534226 -0.653437 -3.259405 -0.239309 -8.514642 -18.980935 -2.245630 2.647901 1.334264 -5.698533 0.000000 -0.000000 0.000000 -18.904843 -8.182837 -21.839597 2.957989 -8.650414 39.300702 8.128696 -10.479214 -18.851960 0.000000 -0.000000 0.000000 -0.738560 1.436672 12.488755 -6.170311 1.169883 3.486988 -3.109429 1.774786 -9.613292 2.486684 19.701308 10.308924 -3.974355 26.542551 -2.601300 -29.126184 -6.269488 4.849897 -39.262064 0.342382 2.186541 11.998301 -16.723559 -4.600037 5.905071 -4.220889 2.387434 23.411653 13.581161 9.822496 38.794446 19.473015 2.150141 -9.340131 24.032379 -12.556037 -3.755841 -0.642964 1.372674 
0.240318 -1.186846 0.991354 -104.993757 -6.225678 91.150759 -0.032720 -4.338548 -1.247745 -8.751906 -20.191742 -1.039192 2.403031 0.480914 -6.014210 0.000000 -0.000000 0.000000 -18.625082 -7.156730 -20.936048 2.674657 -7.396150 40.677879 8.301248 -10.960788 -18.979751 0.000000 -0.000000 0.000000 -1.791942 1.834104 12.866644 -5.830633 0.763623 3.797841 -3.149172 1.535184 -9.509437 2.993598 18.997913 9.680412 -3.438368 25.412104 -2.231176 -29.279185 -6.812970 5.176299 -38.816838 -0.187161 2.830404 11.183957 -18.041160 -1.040386 5.627207 -5.197848 3.892159 23.173539 13.287926 9.483727 41.549444 18.651499 2.321825 -13.951880 25.918906 -15.897205 -2.356404 -0.065929 -2.928245 
0.244335 -1.177634 0.991263 -100.795748 -6.123449 90.794757 1.058227 -5.505528 -2.626725 -9.144059 -21.658850 0.387169 2.242496 -0.221990 -6.340780 0.000000 -0.000000 0.000000 -18.094006 -6.257517 -19.928386 2.832282 -6.139109 41.972493 8.469273 -10.922811 -18.750247 0.000000 -0.000000 0.000000 -2.487251 2.168019 13.206329 -5.552603 0.498915 3.938717 -3.089302 1.171695 -9.316249 3.296029 17.943531 8.833315 -2.698125 24.272213 -1.368486 -29.412851 -7.491625 5.358707 -38.882913 -1.650067 3.448311 10.589642 -18.210875 0.613342 7.158421 -6.037651 4.215498 22.235226 13.068559 8.819206 44.977043 17.984362 3.716000 -16.569077 25.618095 -16.725020 -2.323602 1.446998 -6.642294 
0.248364 -1.166502 0.992066 -96.312471 -5.547156 90.528441 2.678093 -6.575047 -4.382800 -9.422829 -22.748826 2.006553 2.204573 -1.140990 -6.705347 0.000000 -0.000000 0.000000 -16.990903 -5.524514 -18.721028 3.131807 -5.074766 42.924323 8.694532 -9.787276 -18.162866 0.000000 -0.000000 0.000000 -3.030000 2.656150 13.246334 -5.036444 0.160028 4.106027 -2.812151 0.888614 -9.086694 3.404015 17.275634 8.486781 -1.716326 22.832077 -0.368294 -29.408036 -8.431433 5.499736 -39.912204 -3.475035 3.942856 10.718746 -17.985272 0.174102 8.314192 -6.240957 4.068445 21.828090 12.718703 8.568993 47.120008 16.545567 4.840576 -16.516578 26.117015 -15.555180 -2.848863 2.017461 -7.610774 
